<mxfile host="app.diagrams.net" modified="2023-01-13T04:16:49.662Z" agent="5.0 (Windows NT 10.0; Win64; x64) AppleWebKit/537.36 (KHTML, like Gecko) Chrome/108.0.0.0 Safari/537.36 OPR/94.0.0.0" etag="bzyK0gYGFU2-oTBRQO1X" version="20.8.3" type="github">
  <diagram id="C5RBs43oDa-KdzZeNtuy" name="Page-1">
    <mxGraphModel dx="1010" dy="542" grid="1" gridSize="10" guides="1" tooltips="1" connect="1" arrows="1" fold="1" page="1" pageScale="1" pageWidth="827" pageHeight="1169" math="0" shadow="0">
      <root>
        <mxCell id="WIyWlLk6GJQsqaUBKTNV-0" />
        <mxCell id="WIyWlLk6GJQsqaUBKTNV-1" parent="WIyWlLk6GJQsqaUBKTNV-0" />
        <mxCell id="D-Y7xJAfo4DQAFPDim8n-0" value="Start" style="ellipse;whiteSpace=wrap;html=1;" vertex="1" parent="WIyWlLk6GJQsqaUBKTNV-1">
          <mxGeometry x="90" y="90" width="120" height="60" as="geometry" />
        </mxCell>
        <mxCell id="D-Y7xJAfo4DQAFPDim8n-1" value="ESI = 0x08" style="rounded=1;whiteSpace=wrap;html=1;fontSize=12;glass=0;strokeWidth=1;shadow=0;" vertex="1" parent="WIyWlLk6GJQsqaUBKTNV-1">
          <mxGeometry x="250" y="100" width="120" height="40" as="geometry" />
        </mxCell>
        <mxCell id="D-Y7xJAfo4DQAFPDim8n-2" value="Clear EAX" style="rounded=1;whiteSpace=wrap;html=1;fontSize=12;glass=0;strokeWidth=1;shadow=0;" vertex="1" parent="WIyWlLk6GJQsqaUBKTNV-1">
          <mxGeometry x="413.5" y="100" width="120" height="40" as="geometry" />
        </mxCell>
        <mxCell id="D-Y7xJAfo4DQAFPDim8n-3" value="Clear EAX" style="rounded=1;whiteSpace=wrap;html=1;fontSize=12;glass=0;strokeWidth=1;shadow=0;" vertex="1" parent="WIyWlLk6GJQsqaUBKTNV-1">
          <mxGeometry x="580" y="100" width="120" height="40" as="geometry" />
        </mxCell>
        <mxCell id="D-Y7xJAfo4DQAFPDim8n-4" value="Set &quot;Time&quot; = EAX = 0" style="rounded=1;whiteSpace=wrap;html=1;fontSize=12;glass=0;strokeWidth=1;shadow=0;" vertex="1" parent="WIyWlLk6GJQsqaUBKTNV-1">
          <mxGeometry x="580" y="190" width="120" height="40" as="geometry" />
        </mxCell>
        <mxCell id="D-Y7xJAfo4DQAFPDim8n-5" value="ESI - 2" style="rounded=1;whiteSpace=wrap;html=1;fontSize=12;glass=0;strokeWidth=1;shadow=0;" vertex="1" parent="WIyWlLk6GJQsqaUBKTNV-1">
          <mxGeometry x="414" y="385" width="120" height="40" as="geometry" />
        </mxCell>
        <mxCell id="D-Y7xJAfo4DQAFPDim8n-6" value="AX = start_input" style="shape=parallelogram;perimeter=parallelogramPerimeter;whiteSpace=wrap;html=1;fixedSize=1;" vertex="1" parent="WIyWlLk6GJQsqaUBKTNV-1">
          <mxGeometry x="414" y="185" width="120" height="50" as="geometry" />
        </mxCell>
        <mxCell id="D-Y7xJAfo4DQAFPDim8n-7" value="EAX == 1" style="rhombus;whiteSpace=wrap;html=1;" vertex="1" parent="WIyWlLk6GJQsqaUBKTNV-1">
          <mxGeometry x="250" y="180" width="120" height="70" as="geometry" />
        </mxCell>
        <mxCell id="D-Y7xJAfo4DQAFPDim8n-8" value="Clear EAX" style="rounded=1;whiteSpace=wrap;html=1;fontSize=12;glass=0;strokeWidth=1;shadow=0;" vertex="1" parent="WIyWlLk6GJQsqaUBKTNV-1">
          <mxGeometry x="250" y="290" width="120" height="40" as="geometry" />
        </mxCell>
        <mxCell id="D-Y7xJAfo4DQAFPDim8n-9" value="ESI == 0" style="rhombus;whiteSpace=wrap;html=1;" vertex="1" parent="WIyWlLk6GJQsqaUBKTNV-1">
          <mxGeometry x="250" y="370" width="120" height="70" as="geometry" />
        </mxCell>
        <mxCell id="D-Y7xJAfo4DQAFPDim8n-10" value="minute_input" style="shape=parallelogram;perimeter=parallelogramPerimeter;whiteSpace=wrap;html=1;fixedSize=1;" vertex="1" parent="WIyWlLk6GJQsqaUBKTNV-1">
          <mxGeometry x="580" y="380" width="120" height="50" as="geometry" />
        </mxCell>
        <mxCell id="D-Y7xJAfo4DQAFPDim8n-11" value="second_input" style="shape=parallelogram;perimeter=parallelogramPerimeter;whiteSpace=wrap;html=1;fixedSize=1;" vertex="1" parent="WIyWlLk6GJQsqaUBKTNV-1">
          <mxGeometry x="580" y="480" width="120" height="50" as="geometry" />
        </mxCell>
        <mxCell id="D-Y7xJAfo4DQAFPDim8n-41" value="" style="edgeStyle=orthogonalEdgeStyle;rounded=0;orthogonalLoop=1;jettySize=auto;html=1;" edge="1" parent="WIyWlLk6GJQsqaUBKTNV-1" source="D-Y7xJAfo4DQAFPDim8n-12" target="D-Y7xJAfo4DQAFPDim8n-13">
          <mxGeometry relative="1" as="geometry" />
        </mxCell>
        <mxCell id="D-Y7xJAfo4DQAFPDim8n-12" value="AX = total time" style="rounded=1;whiteSpace=wrap;html=1;fontSize=12;glass=0;strokeWidth=1;shadow=0;" vertex="1" parent="WIyWlLk6GJQsqaUBKTNV-1">
          <mxGeometry x="414" y="485" width="120" height="40" as="geometry" />
        </mxCell>
        <mxCell id="D-Y7xJAfo4DQAFPDim8n-13" value="Decease EAX by 1" style="rounded=1;whiteSpace=wrap;html=1;fontSize=12;glass=0;strokeWidth=1;shadow=0;" vertex="1" parent="WIyWlLk6GJQsqaUBKTNV-1">
          <mxGeometry x="250" y="485" width="120" height="40" as="geometry" />
        </mxCell>
        <mxCell id="D-Y7xJAfo4DQAFPDim8n-14" value="GPIO_7 on LED" style="shape=parallelogram;perimeter=parallelogramPerimeter;whiteSpace=wrap;html=1;fixedSize=1;" vertex="1" parent="WIyWlLk6GJQsqaUBKTNV-1">
          <mxGeometry x="250" y="570" width="120" height="50" as="geometry" />
        </mxCell>
        <mxCell id="D-Y7xJAfo4DQAFPDim8n-15" value="Delay 0.5 second" style="shape=or;whiteSpace=wrap;html=1;" vertex="1" parent="WIyWlLk6GJQsqaUBKTNV-1">
          <mxGeometry x="414" y="570" width="126" height="50" as="geometry" />
        </mxCell>
        <mxCell id="D-Y7xJAfo4DQAFPDim8n-16" value="GPIO_7 off LED" style="shape=parallelogram;perimeter=parallelogramPerimeter;whiteSpace=wrap;html=1;fixedSize=1;" vertex="1" parent="WIyWlLk6GJQsqaUBKTNV-1">
          <mxGeometry x="580" y="570" width="120" height="50" as="geometry" />
        </mxCell>
        <mxCell id="D-Y7xJAfo4DQAFPDim8n-17" value="Delay 0.5 second" style="shape=or;whiteSpace=wrap;html=1;" vertex="1" parent="WIyWlLk6GJQsqaUBKTNV-1">
          <mxGeometry x="580" y="660" width="126" height="50" as="geometry" />
        </mxCell>
        <mxCell id="D-Y7xJAfo4DQAFPDim8n-18" value="EAX == 0" style="rhombus;whiteSpace=wrap;html=1;" vertex="1" parent="WIyWlLk6GJQsqaUBKTNV-1">
          <mxGeometry x="414" y="650" width="120" height="70" as="geometry" />
        </mxCell>
        <mxCell id="D-Y7xJAfo4DQAFPDim8n-19" value="" style="endArrow=classic;html=1;rounded=0;exitX=1;exitY=0.5;exitDx=0;exitDy=0;entryX=0;entryY=0.5;entryDx=0;entryDy=0;" edge="1" parent="WIyWlLk6GJQsqaUBKTNV-1" source="D-Y7xJAfo4DQAFPDim8n-0" target="D-Y7xJAfo4DQAFPDim8n-1">
          <mxGeometry width="50" height="50" relative="1" as="geometry">
            <mxPoint x="390" y="230" as="sourcePoint" />
            <mxPoint x="440" y="180" as="targetPoint" />
          </mxGeometry>
        </mxCell>
        <mxCell id="D-Y7xJAfo4DQAFPDim8n-20" value="" style="endArrow=classic;html=1;rounded=0;exitX=1;exitY=0.5;exitDx=0;exitDy=0;entryX=0;entryY=0.5;entryDx=0;entryDy=0;" edge="1" parent="WIyWlLk6GJQsqaUBKTNV-1" source="D-Y7xJAfo4DQAFPDim8n-1" target="D-Y7xJAfo4DQAFPDim8n-2">
          <mxGeometry width="50" height="50" relative="1" as="geometry">
            <mxPoint x="220" y="130" as="sourcePoint" />
            <mxPoint x="260" y="130" as="targetPoint" />
          </mxGeometry>
        </mxCell>
        <mxCell id="D-Y7xJAfo4DQAFPDim8n-21" value="" style="endArrow=classic;html=1;rounded=0;exitX=1;exitY=0.5;exitDx=0;exitDy=0;entryX=0;entryY=0.5;entryDx=0;entryDy=0;" edge="1" parent="WIyWlLk6GJQsqaUBKTNV-1" source="D-Y7xJAfo4DQAFPDim8n-2" target="D-Y7xJAfo4DQAFPDim8n-3">
          <mxGeometry width="50" height="50" relative="1" as="geometry">
            <mxPoint x="380" y="130" as="sourcePoint" />
            <mxPoint x="423.5" y="130" as="targetPoint" />
          </mxGeometry>
        </mxCell>
        <mxCell id="D-Y7xJAfo4DQAFPDim8n-22" value="" style="endArrow=classic;html=1;rounded=0;exitX=0.5;exitY=1;exitDx=0;exitDy=0;entryX=0.5;entryY=0;entryDx=0;entryDy=0;" edge="1" parent="WIyWlLk6GJQsqaUBKTNV-1" source="D-Y7xJAfo4DQAFPDim8n-3" target="D-Y7xJAfo4DQAFPDim8n-4">
          <mxGeometry width="50" height="50" relative="1" as="geometry">
            <mxPoint x="543.5" y="130" as="sourcePoint" />
            <mxPoint x="590" y="130" as="targetPoint" />
          </mxGeometry>
        </mxCell>
        <mxCell id="D-Y7xJAfo4DQAFPDim8n-23" value="" style="endArrow=classic;html=1;rounded=0;exitX=0;exitY=0.5;exitDx=0;exitDy=0;entryX=1;entryY=0.5;entryDx=0;entryDy=0;" edge="1" parent="WIyWlLk6GJQsqaUBKTNV-1" source="D-Y7xJAfo4DQAFPDim8n-4" target="D-Y7xJAfo4DQAFPDim8n-6">
          <mxGeometry width="50" height="50" relative="1" as="geometry">
            <mxPoint x="650" y="150" as="sourcePoint" />
            <mxPoint x="650" y="200" as="targetPoint" />
          </mxGeometry>
        </mxCell>
        <mxCell id="D-Y7xJAfo4DQAFPDim8n-27" value="" style="endArrow=classic;html=1;rounded=0;entryX=1;entryY=0.5;entryDx=0;entryDy=0;" edge="1" parent="WIyWlLk6GJQsqaUBKTNV-1" target="D-Y7xJAfo4DQAFPDim8n-7">
          <mxGeometry width="50" height="50" relative="1" as="geometry">
            <mxPoint x="420" y="215" as="sourcePoint" />
            <mxPoint x="534" y="220" as="targetPoint" />
          </mxGeometry>
        </mxCell>
        <mxCell id="D-Y7xJAfo4DQAFPDim8n-28" value="" style="endArrow=classic;html=1;rounded=0;entryX=0.5;entryY=0;entryDx=0;entryDy=0;exitX=0.5;exitY=1;exitDx=0;exitDy=0;" edge="1" parent="WIyWlLk6GJQsqaUBKTNV-1" source="D-Y7xJAfo4DQAFPDim8n-7" target="D-Y7xJAfo4DQAFPDim8n-8">
          <mxGeometry width="50" height="50" relative="1" as="geometry">
            <mxPoint x="430" y="225" as="sourcePoint" />
            <mxPoint x="380" y="225" as="targetPoint" />
          </mxGeometry>
        </mxCell>
        <mxCell id="D-Y7xJAfo4DQAFPDim8n-29" value="" style="endArrow=classic;html=1;rounded=0;entryX=0.5;entryY=0;entryDx=0;entryDy=0;exitX=0.5;exitY=1;exitDx=0;exitDy=0;" edge="1" parent="WIyWlLk6GJQsqaUBKTNV-1" source="D-Y7xJAfo4DQAFPDim8n-8" target="D-Y7xJAfo4DQAFPDim8n-9">
          <mxGeometry width="50" height="50" relative="1" as="geometry">
            <mxPoint x="320" y="260" as="sourcePoint" />
            <mxPoint x="320" y="300" as="targetPoint" />
          </mxGeometry>
        </mxCell>
        <mxCell id="D-Y7xJAfo4DQAFPDim8n-30" value="" style="endArrow=classic;html=1;rounded=0;exitX=0;exitY=0.5;exitDx=0;exitDy=0;entryX=0.5;entryY=0;entryDx=0;entryDy=0;" edge="1" parent="WIyWlLk6GJQsqaUBKTNV-1" source="D-Y7xJAfo4DQAFPDim8n-7" target="D-Y7xJAfo4DQAFPDim8n-50">
          <mxGeometry width="50" height="50" relative="1" as="geometry">
            <mxPoint x="320" y="260" as="sourcePoint" />
            <mxPoint x="170" y="215" as="targetPoint" />
            <Array as="points">
              <mxPoint x="120" y="215" />
            </Array>
          </mxGeometry>
        </mxCell>
        <mxCell id="D-Y7xJAfo4DQAFPDim8n-31" value="" style="endArrow=classic;html=1;rounded=0;exitX=0;exitY=0.5;exitDx=0;exitDy=0;entryX=0.5;entryY=1;entryDx=0;entryDy=0;" edge="1" parent="WIyWlLk6GJQsqaUBKTNV-1" source="D-Y7xJAfo4DQAFPDim8n-9" target="D-Y7xJAfo4DQAFPDim8n-50">
          <mxGeometry width="50" height="50" relative="1" as="geometry">
            <mxPoint x="260" y="225" as="sourcePoint" />
            <mxPoint x="180" y="405" as="targetPoint" />
            <Array as="points">
              <mxPoint x="120" y="405" />
            </Array>
          </mxGeometry>
        </mxCell>
        <mxCell id="D-Y7xJAfo4DQAFPDim8n-32" value="" style="endArrow=classic;html=1;rounded=0;entryX=0;entryY=0.5;entryDx=0;entryDy=0;exitX=1;exitY=0.5;exitDx=0;exitDy=0;" edge="1" parent="WIyWlLk6GJQsqaUBKTNV-1" source="D-Y7xJAfo4DQAFPDim8n-9" target="D-Y7xJAfo4DQAFPDim8n-5">
          <mxGeometry width="50" height="50" relative="1" as="geometry">
            <mxPoint x="320" y="340" as="sourcePoint" />
            <mxPoint x="320" y="380" as="targetPoint" />
          </mxGeometry>
        </mxCell>
        <mxCell id="D-Y7xJAfo4DQAFPDim8n-33" value="No" style="text;html=1;align=center;verticalAlign=middle;resizable=0;points=[];autosize=1;strokeColor=none;fillColor=none;" vertex="1" parent="WIyWlLk6GJQsqaUBKTNV-1">
          <mxGeometry x="370" y="375" width="40" height="30" as="geometry" />
        </mxCell>
        <mxCell id="D-Y7xJAfo4DQAFPDim8n-34" value="YES" style="text;html=1;align=center;verticalAlign=middle;resizable=0;points=[];autosize=1;strokeColor=none;fillColor=none;" vertex="1" parent="WIyWlLk6GJQsqaUBKTNV-1">
          <mxGeometry x="305" y="250" width="50" height="30" as="geometry" />
        </mxCell>
        <mxCell id="D-Y7xJAfo4DQAFPDim8n-35" value="NO" style="text;html=1;align=center;verticalAlign=middle;resizable=0;points=[];autosize=1;strokeColor=none;fillColor=none;" vertex="1" parent="WIyWlLk6GJQsqaUBKTNV-1">
          <mxGeometry x="190" y="185" width="40" height="30" as="geometry" />
        </mxCell>
        <mxCell id="D-Y7xJAfo4DQAFPDim8n-36" value="YES" style="text;html=1;align=center;verticalAlign=middle;resizable=0;points=[];autosize=1;strokeColor=none;fillColor=none;" vertex="1" parent="WIyWlLk6GJQsqaUBKTNV-1">
          <mxGeometry x="195" y="375" width="50" height="30" as="geometry" />
        </mxCell>
        <mxCell id="D-Y7xJAfo4DQAFPDim8n-37" value="" style="endArrow=classic;html=1;rounded=0;entryX=0;entryY=0.5;entryDx=0;entryDy=0;exitX=1;exitY=0.5;exitDx=0;exitDy=0;" edge="1" parent="WIyWlLk6GJQsqaUBKTNV-1" source="D-Y7xJAfo4DQAFPDim8n-5" target="D-Y7xJAfo4DQAFPDim8n-10">
          <mxGeometry width="50" height="50" relative="1" as="geometry">
            <mxPoint x="320" y="340" as="sourcePoint" />
            <mxPoint x="320" y="380" as="targetPoint" />
          </mxGeometry>
        </mxCell>
        <mxCell id="D-Y7xJAfo4DQAFPDim8n-38" value="" style="endArrow=classic;html=1;rounded=0;entryX=0.5;entryY=0;entryDx=0;entryDy=0;exitX=0.5;exitY=1;exitDx=0;exitDy=0;" edge="1" parent="WIyWlLk6GJQsqaUBKTNV-1" source="D-Y7xJAfo4DQAFPDim8n-10" target="D-Y7xJAfo4DQAFPDim8n-11">
          <mxGeometry width="50" height="50" relative="1" as="geometry">
            <mxPoint x="544" y="415" as="sourcePoint" />
            <mxPoint x="600" y="415" as="targetPoint" />
          </mxGeometry>
        </mxCell>
        <mxCell id="D-Y7xJAfo4DQAFPDim8n-39" value="" style="endArrow=classic;html=1;rounded=0;entryX=1;entryY=0.5;entryDx=0;entryDy=0;exitX=0;exitY=0.5;exitDx=0;exitDy=0;" edge="1" parent="WIyWlLk6GJQsqaUBKTNV-1" source="D-Y7xJAfo4DQAFPDim8n-11" target="D-Y7xJAfo4DQAFPDim8n-12">
          <mxGeometry width="50" height="50" relative="1" as="geometry">
            <mxPoint x="650" y="440" as="sourcePoint" />
            <mxPoint x="650" y="490" as="targetPoint" />
          </mxGeometry>
        </mxCell>
        <mxCell id="D-Y7xJAfo4DQAFPDim8n-40" value="" style="endArrow=classic;html=1;rounded=0;entryX=1;entryY=0.5;entryDx=0;entryDy=0;exitX=0;exitY=0.5;exitDx=0;exitDy=0;" edge="1" parent="WIyWlLk6GJQsqaUBKTNV-1" source="D-Y7xJAfo4DQAFPDim8n-12" target="D-Y7xJAfo4DQAFPDim8n-13">
          <mxGeometry width="50" height="50" relative="1" as="geometry">
            <mxPoint x="410" y="505" as="sourcePoint" />
            <mxPoint x="544" y="515" as="targetPoint" />
          </mxGeometry>
        </mxCell>
        <mxCell id="D-Y7xJAfo4DQAFPDim8n-42" value="" style="endArrow=classic;html=1;rounded=0;entryX=0.5;entryY=0;entryDx=0;entryDy=0;exitX=0.5;exitY=1;exitDx=0;exitDy=0;" edge="1" parent="WIyWlLk6GJQsqaUBKTNV-1" source="D-Y7xJAfo4DQAFPDim8n-13" target="D-Y7xJAfo4DQAFPDim8n-14">
          <mxGeometry width="50" height="50" relative="1" as="geometry">
            <mxPoint x="424" y="515" as="sourcePoint" />
            <mxPoint x="380" y="515" as="targetPoint" />
          </mxGeometry>
        </mxCell>
        <mxCell id="D-Y7xJAfo4DQAFPDim8n-43" value="" style="endArrow=classic;html=1;rounded=0;entryX=0;entryY=0.5;entryDx=0;entryDy=0;exitX=1;exitY=0.5;exitDx=0;exitDy=0;entryPerimeter=0;" edge="1" parent="WIyWlLk6GJQsqaUBKTNV-1" source="D-Y7xJAfo4DQAFPDim8n-14" target="D-Y7xJAfo4DQAFPDim8n-15">
          <mxGeometry width="50" height="50" relative="1" as="geometry">
            <mxPoint x="320" y="535" as="sourcePoint" />
            <mxPoint x="320" y="580" as="targetPoint" />
          </mxGeometry>
        </mxCell>
        <mxCell id="D-Y7xJAfo4DQAFPDim8n-44" value="" style="endArrow=classic;html=1;rounded=0;entryX=0;entryY=0.5;entryDx=0;entryDy=0;exitX=1;exitY=0.5;exitDx=0;exitDy=0;exitPerimeter=0;" edge="1" parent="WIyWlLk6GJQsqaUBKTNV-1" source="D-Y7xJAfo4DQAFPDim8n-15" target="D-Y7xJAfo4DQAFPDim8n-16">
          <mxGeometry width="50" height="50" relative="1" as="geometry">
            <mxPoint x="370" y="605" as="sourcePoint" />
            <mxPoint x="424" y="605" as="targetPoint" />
          </mxGeometry>
        </mxCell>
        <mxCell id="D-Y7xJAfo4DQAFPDim8n-45" value="" style="endArrow=classic;html=1;rounded=0;exitX=0.5;exitY=1;exitDx=0;exitDy=0;" edge="1" parent="WIyWlLk6GJQsqaUBKTNV-1" source="D-Y7xJAfo4DQAFPDim8n-16">
          <mxGeometry width="50" height="50" relative="1" as="geometry">
            <mxPoint x="650" y="630" as="sourcePoint" />
            <mxPoint x="640" y="660" as="targetPoint" />
          </mxGeometry>
        </mxCell>
        <mxCell id="D-Y7xJAfo4DQAFPDim8n-47" value="" style="endArrow=classic;html=1;rounded=0;entryX=1;entryY=0.5;entryDx=0;entryDy=0;exitX=0;exitY=0.5;exitDx=0;exitDy=0;exitPerimeter=0;" edge="1" parent="WIyWlLk6GJQsqaUBKTNV-1" source="D-Y7xJAfo4DQAFPDim8n-17" target="D-Y7xJAfo4DQAFPDim8n-18">
          <mxGeometry width="50" height="50" relative="1" as="geometry">
            <mxPoint x="550" y="605" as="sourcePoint" />
            <mxPoint x="600" y="605" as="targetPoint" />
          </mxGeometry>
        </mxCell>
        <mxCell id="D-Y7xJAfo4DQAFPDim8n-48" value="" style="endArrow=classic;html=1;rounded=0;exitX=0;exitY=0.5;exitDx=0;exitDy=0;entryX=0;entryY=0.5;entryDx=0;entryDy=0;" edge="1" parent="WIyWlLk6GJQsqaUBKTNV-1" source="D-Y7xJAfo4DQAFPDim8n-18" target="D-Y7xJAfo4DQAFPDim8n-13">
          <mxGeometry width="50" height="50" relative="1" as="geometry">
            <mxPoint x="590" y="695" as="sourcePoint" />
            <mxPoint x="180" y="690" as="targetPoint" />
            <Array as="points">
              <mxPoint x="180" y="685" />
              <mxPoint x="180" y="505" />
            </Array>
          </mxGeometry>
        </mxCell>
        <mxCell id="D-Y7xJAfo4DQAFPDim8n-49" value="No" style="text;html=1;align=center;verticalAlign=middle;resizable=0;points=[];autosize=1;strokeColor=none;fillColor=none;" vertex="1" parent="WIyWlLk6GJQsqaUBKTNV-1">
          <mxGeometry x="380" y="655" width="40" height="30" as="geometry" />
        </mxCell>
        <mxCell id="D-Y7xJAfo4DQAFPDim8n-50" value="END" style="ellipse;whiteSpace=wrap;html=1;" vertex="1" parent="WIyWlLk6GJQsqaUBKTNV-1">
          <mxGeometry x="60" y="270" width="120" height="60" as="geometry" />
        </mxCell>
        <mxCell id="D-Y7xJAfo4DQAFPDim8n-51" value="GPIO_6 on LED" style="shape=parallelogram;perimeter=parallelogramPerimeter;whiteSpace=wrap;html=1;fixedSize=1;" vertex="1" parent="WIyWlLk6GJQsqaUBKTNV-1">
          <mxGeometry x="414" y="760" width="120" height="50" as="geometry" />
        </mxCell>
        <mxCell id="D-Y7xJAfo4DQAFPDim8n-52" value="" style="endArrow=classic;html=1;rounded=0;entryX=0.5;entryY=0;entryDx=0;entryDy=0;exitX=0.5;exitY=1;exitDx=0;exitDy=0;" edge="1" parent="WIyWlLk6GJQsqaUBKTNV-1" source="D-Y7xJAfo4DQAFPDim8n-18" target="D-Y7xJAfo4DQAFPDim8n-51">
          <mxGeometry width="50" height="50" relative="1" as="geometry">
            <mxPoint x="320" y="535" as="sourcePoint" />
            <mxPoint x="320" y="580" as="targetPoint" />
          </mxGeometry>
        </mxCell>
        <mxCell id="D-Y7xJAfo4DQAFPDim8n-54" value="Delay 1 second" style="shape=or;whiteSpace=wrap;html=1;" vertex="1" parent="WIyWlLk6GJQsqaUBKTNV-1">
          <mxGeometry x="411" y="850" width="126" height="50" as="geometry" />
        </mxCell>
        <mxCell id="D-Y7xJAfo4DQAFPDim8n-55" value="" style="endArrow=classic;html=1;rounded=0;entryX=0.5;entryY=0.064;entryDx=0;entryDy=0;exitX=0.5;exitY=1;exitDx=0;exitDy=0;entryPerimeter=0;" edge="1" parent="WIyWlLk6GJQsqaUBKTNV-1" source="D-Y7xJAfo4DQAFPDim8n-51" target="D-Y7xJAfo4DQAFPDim8n-54">
          <mxGeometry width="50" height="50" relative="1" as="geometry">
            <mxPoint x="484" y="730" as="sourcePoint" />
            <mxPoint x="484" y="770" as="targetPoint" />
          </mxGeometry>
        </mxCell>
        <mxCell id="D-Y7xJAfo4DQAFPDim8n-56" value="GPIO_6 off LED" style="shape=parallelogram;perimeter=parallelogramPerimeter;whiteSpace=wrap;html=1;fixedSize=1;" vertex="1" parent="WIyWlLk6GJQsqaUBKTNV-1">
          <mxGeometry x="411" y="940" width="120" height="50" as="geometry" />
        </mxCell>
        <mxCell id="D-Y7xJAfo4DQAFPDim8n-60" value="" style="endArrow=classic;html=1;rounded=0;entryX=0.5;entryY=0;entryDx=0;entryDy=0;" edge="1" parent="WIyWlLk6GJQsqaUBKTNV-1" target="D-Y7xJAfo4DQAFPDim8n-56">
          <mxGeometry width="50" height="50" relative="1" as="geometry">
            <mxPoint x="471" y="900" as="sourcePoint" />
            <mxPoint x="484" y="863.2" as="targetPoint" />
          </mxGeometry>
        </mxCell>
        <mxCell id="D-Y7xJAfo4DQAFPDim8n-61" value="Delay 0.5 second" style="shape=or;whiteSpace=wrap;html=1;" vertex="1" parent="WIyWlLk6GJQsqaUBKTNV-1">
          <mxGeometry x="411" y="1030" width="126" height="50" as="geometry" />
        </mxCell>
        <mxCell id="D-Y7xJAfo4DQAFPDim8n-62" value="" style="endArrow=classic;html=1;rounded=0;entryX=0.475;entryY=0.064;entryDx=0;entryDy=0;entryPerimeter=0;exitX=0.5;exitY=1;exitDx=0;exitDy=0;" edge="1" parent="WIyWlLk6GJQsqaUBKTNV-1" source="D-Y7xJAfo4DQAFPDim8n-56" target="D-Y7xJAfo4DQAFPDim8n-61">
          <mxGeometry width="50" height="50" relative="1" as="geometry">
            <mxPoint x="481" y="910" as="sourcePoint" />
            <mxPoint x="481" y="950" as="targetPoint" />
          </mxGeometry>
        </mxCell>
        <mxCell id="D-Y7xJAfo4DQAFPDim8n-63" value="" style="endArrow=classic;html=1;rounded=0;exitX=1;exitY=0.5;exitDx=0;exitDy=0;exitPerimeter=0;entryX=1;entryY=0.5;entryDx=0;entryDy=0;" edge="1" parent="WIyWlLk6GJQsqaUBKTNV-1" source="D-Y7xJAfo4DQAFPDim8n-61" target="D-Y7xJAfo4DQAFPDim8n-3">
          <mxGeometry width="50" height="50" relative="1" as="geometry">
            <mxPoint x="481" y="1000" as="sourcePoint" />
            <mxPoint x="760" y="770" as="targetPoint" />
            <Array as="points">
              <mxPoint x="760" y="1055" />
              <mxPoint x="760" y="600" />
              <mxPoint x="760" y="120" />
            </Array>
          </mxGeometry>
        </mxCell>
        <mxCell id="D-Y7xJAfo4DQAFPDim8n-64" value="YES" style="text;html=1;align=center;verticalAlign=middle;resizable=0;points=[];autosize=1;strokeColor=none;fillColor=none;" vertex="1" parent="WIyWlLk6GJQsqaUBKTNV-1">
          <mxGeometry x="465" y="715" width="50" height="30" as="geometry" />
        </mxCell>
      </root>
    </mxGraphModel>
  </diagram>
</mxfile>
